<?xml version="1.0" standalone="no"?>
<!DOCTYPE svg PUBLIC "-//W3C//DTD SVG 20010904//EN"
 "http://www.w3.org/TR/2001/REC-SVG-20010904/DTD/svg10.dtd">
<svg version="1.0" xmlns="http://www.w3.org/2000/svg"
 width="270.000000pt" height="270.000000pt" viewBox="0 0 270.000000 270.000000"
 preserveAspectRatio="xMidYMid meet">
<metadata>
Created by potrace 1.14, written by Peter Selinger 2001-2017
</metadata>
<g transform="translate(0.000000,270.000000) scale(0.100000,-0.100000)"
fill="#000000" stroke="none">
<path d="M625 2500 c-3 -6 1 -7 9 -4 18 7 21 14 7 14 -6 0 -13 -4 -16 -10z"/>
<path d="M755 2500 c3 -5 8 -10 11 -10 2 0 4 5 4 10 0 6 -5 10 -11 10 -5 0 -7
-4 -4 -10z"/>
<path d="M1110 2502 c0 -5 7 -9 15 -9 8 0 12 4 9 9 -3 4 -9 8 -15 8 -5 0 -9
-4 -9 -8z"/>
<path d="M1260 2506 c0 -2 8 -10 18 -17 15 -13 16 -12 3 4 -13 16 -21 21 -21
13z"/>
<path d="M695 2480 c-3 -5 -1 -10 4 -10 6 0 11 5 11 10 0 6 -2 10 -4 10 -3 0
-8 -4 -11 -10z"/>
<path d="M857 2483 c-3 -5 -1 -17 4 -28 6 -17 7 -16 6 8 -1 28 -3 32 -10 20z"/>
<path d="M936 2481 c-3 -5 1 -14 8 -20 10 -9 16 -9 21 -1 4 6 1 9 -7 8 -7 -2
-12 3 -10 10 2 14 -4 16 -12 3z"/>
<path d="M1055 2480 c-3 -5 -3 -10 2 -10 4 0 1 -5 -7 -11 -12 -8 -12 -10 -1
-7 8 2 15 12 17 21 3 19 -2 22 -11 7z"/>
<path d="M1155 2481 c-3 -5 -2 -12 3 -15 5 -3 9 1 9 9 0 17 -3 19 -12 6z"/>
<path d="M1215 2481 c-3 -5 -2 -12 3 -15 5 -3 9 1 9 9 0 17 -3 19 -12 6z"/>
<path d="M1337 2483 c-3 -5 -1 -17 4 -28 6 -17 7 -16 6 8 -1 28 -3 32 -10 20z"/>
<path d="M1595 2481 c-3 -5 -2 -12 3 -15 5 -3 9 1 9 9 0 17 -3 19 -12 6z"/>
<path d="M1650 2480 c0 -5 5 -10 11 -10 5 0 7 5 4 10 -3 6 -8 10 -11 10 -2 0
-4 -4 -4 -10z"/>
<path d="M1774 2483 c3 -6 -1 -16 -10 -21 -11 -6 -13 -11 -5 -16 6 -4 11 -2
11 4 0 6 4 9 9 6 11 -7 8 21 -4 31 -4 4 -5 3 -1 -4z"/>
<path d="M1896 2481 c-3 -5 2 -15 12 -22 15 -12 16 -12 5 2 -7 9 -10 19 -6 22
3 4 4 7 0 7 -3 0 -8 -4 -11 -9z"/>
<path d="M1475 2470 c-4 -6 -11 -8 -16 -5 -5 4 -9 2 -9 -4 0 -5 8 -9 18 -8 10
0 19 7 19 14 0 16 -4 16 -12 3z"/>
<path d="M595 2460 c-4 -6 -1 -9 7 -8 7 2 12 -3 10 -10 -1 -8 2 -11 8 -7 8 5
7 11 -1 21 -14 17 -16 17 -24 4z"/>
<path d="M753 2464 c8 -9 47 -13 51 -6 2 4 -9 8 -25 8 -17 1 -28 0 -26 -2z"/>
<path d="M1177 2456 c-4 -10 -1 -13 8 -9 8 3 12 9 9 14 -7 12 -11 11 -17 -5z"/>
<path d="M1816 2456 c6 -15 4 -17 -6 -11 -9 6 -11 4 -5 -5 6 -10 4 -12 -11 -6
-15 6 -17 5 -6 -5 10 -11 15 -10 29 4 14 14 15 19 4 29 -10 11 -11 9 -5 -6z"/>
<path d="M1956 2462 c-2 -4 -1 -14 4 -22 7 -11 9 -9 7 8 -1 24 -3 26 -11 14z"/>
<path d="M2053 2455 c0 -8 4 -12 9 -9 4 3 8 9 8 15 0 5 -4 9 -8 9 -5 0 -9 -7
-9 -15z"/>
<path d="M696 2451 c-3 -5 2 -15 12 -22 15 -12 16 -12 5 2 -7 9 -10 19 -6 22
3 4 4 7 0 7 -3 0 -8 -4 -11 -9z"/>
<path d="M920 2450 c0 -5 -5 -9 -11 -7 -6 1 -14 -5 -16 -13 -4 -12 -3 -12 5
-2 5 8 13 13 18 12 5 -1 10 3 12 9 2 6 1 11 -2 11 -3 0 -6 -4 -6 -10z"/>
<path d="M1400 2451 c0 -7 -5 -9 -12 -5 -7 5 -8 3 -3 -5 5 -9 10 -10 18 -2 6
6 8 14 4 18 -4 3 -7 1 -7 -6z"/>
<path d="M1640 2451 c0 -7 -5 -9 -12 -5 -7 5 -8 3 -3 -5 5 -9 10 -10 18 -2 6
6 8 14 4 18 -4 3 -7 1 -7 -6z"/>
<path d="M1880 2451 c0 -7 -4 -10 -8 -7 -5 3 -9 -2 -9 -10 0 -13 2 -13 16 0 8
9 12 19 8 22 -4 4 -7 2 -7 -5z"/>
<path d="M670 2444 c0 -5 5 -15 12 -22 9 -9 8 -12 -4 -12 -9 0 -19 8 -21 18
-4 16 -5 16 -6 0 0 -10 -6 -18 -12 -18 -5 0 -7 6 -3 13 5 9 4 9 -6 0 -11 -10
-17 -10 -29 0 -12 9 -13 9 -7 0 4 -7 2 -13 -3 -13 -6 0 -11 6 -11 13 0 9 -2 9
-8 0 -4 -6 -20 -15 -35 -19 -36 -8 -72 -44 -72 -70 1 -10 -8 -25 -20 -32 -13
-9 -14 -12 -3 -8 23 7 30 -4 12 -21 -8 -8 -11 -19 -8 -25 4 -6 1 -9 -7 -6 -8
3 -14 13 -14 23 0 26 -43 28 -51 3 -3 -11 -3 -22 0 -25 3 -4 0 -13 -7 -22 -10
-14 -10 -14 4 -4 9 7 20 9 24 5 5 -4 5 -2 2 4 -8 14 20 27 28 14 3 -4 -1 -10
-7 -13 -7 -2 -9 -8 -5 -13 4 -5 12 -2 17 6 5 8 12 11 17 7 4 -5 1 -12 -6 -16
-8 -5 -9 -11 -3 -15 12 -7 24 22 16 37 -5 9 -4 9 5 1 10 -9 9 -18 -3 -43 -18
-33 -30 -42 -19 -13 6 15 5 15 -10 3 -9 -7 -17 -10 -17 -7 0 4 -9 2 -20 -4
-11 -6 -17 -16 -14 -22 5 -7 2 -8 -5 -4 -7 5 -10 14 -7 21 2 7 -1 21 -9 31
-11 16 -12 15 -8 -11 10 -65 12 -97 6 -91 -3 3 -7 16 -8 29 -1 12 -8 22 -16
23 -9 1 -9 -1 -2 -3 10 -3 10 -9 2 -25 -8 -15 -8 -19 0 -14 6 4 11 2 11 -3 0
-6 -9 -11 -21 -11 -11 0 -17 5 -14 10 3 6 1 10 -4 10 -6 0 -11 -9 -11 -21 0
-11 -4 -18 -9 -15 -5 3 -11 -4 -14 -15 -4 -14 -11 -20 -21 -16 -9 4 -15 1 -13
-6 1 -7 -7 -11 -18 -10 -17 1 -17 -1 5 -19 14 -11 19 -17 12 -13 -9 5 -11 -1
-7 -25 4 -22 2 -29 -5 -25 -7 4 -6 -1 1 -13 7 -12 16 -19 20 -16 4 2 2 -10 -4
-27 -11 -29 -10 -32 25 -61 39 -31 52 -63 21 -51 -9 4 -14 2 -10 -3 3 -6 -8
-9 -26 -8 -28 2 -30 1 -15 -10 11 -8 14 -16 8 -22 -6 -6 -2 -10 10 -11 12 -1
18 3 14 9 -4 5 4 4 17 -3 13 -7 27 -13 31 -14 3 0 10 -4 15 -9 5 -5 2 -6 -6
-1 -9 5 -12 3 -9 -6 3 -8 11 -13 17 -11 7 1 10 -2 6 -8 -3 -5 0 -10 7 -10 10
0 9 -3 -2 -9 -8 -6 -18 -7 -22 -5 -4 3 -8 0 -8 -5 0 -6 -3 -10 -8 -10 -18 3
-32 -2 -32 -12 0 -5 5 -7 10 -4 6 3 10 -3 10 -14 0 -12 -5 -21 -11 -21 -5 0
-7 6 -4 13 4 6 -3 1 -14 -13 -18 -21 -22 -23 -32 -10 -9 13 -10 13 -6 -1 3 -9
-2 -27 -11 -40 -18 -25 -25 -89 -11 -89 5 0 9 -10 9 -22 0 -19 2 -20 10 -8 8
13 10 12 10 -3 0 -10 5 -15 10 -12 6 3 10 1 10 -4 0 -6 10 -10 22 -8 17 2 23
-4 24 -25 2 -16 -1 -28 -7 -28 -5 0 -8 -5 -6 -11 1 -6 -4 -14 -12 -17 -9 -3
-11 0 -6 9 5 8 4 10 0 6 -5 -4 -10 -14 -11 -22 -2 -12 2 -12 17 -5 13 7 19 7
19 0 0 -5 16 -27 35 -48 19 -22 31 -43 27 -47 -4 -4 4 -4 18 -1 17 5 21 4 11
-2 -11 -8 -11 -10 0 -15 9 -4 10 -6 2 -6 -7 -1 -11 -7 -9 -13 1 -7 1 -10 -1
-5 -3 4 -10 4 -16 0 -8 -4 -7 -1 1 9 18 22 -7 31 -33 12 -10 -8 -14 -14 -9
-14 6 0 16 6 23 12 11 11 13 10 8 -4 -3 -10 -2 -20 3 -23 5 -3 7 -24 5 -46 -3
-24 0 -37 5 -34 6 4 10 1 10 -5 0 -6 5 -8 12 -4 6 4 8 3 4 -4 -3 -5 -3 -12 1
-15 5 -2 2 -2 -4 -1 -7 2 -13 -1 -13 -7 0 -6 -4 -7 -10 -4 -6 4 -7 -1 -4 -12
5 -16 4 -16 -10 1 -9 11 -16 15 -16 10 0 -6 3 -14 8 -18 10 -10 10 -56 0 -56
-4 0 -8 -8 -8 -17 -1 -16 -2 -16 -15 1 -8 11 -15 14 -15 7 0 -7 -4 -10 -8 -7
-11 7 -32 -29 -24 -40 8 -12 22 -12 41 0 10 6 12 5 7 -2 -4 -7 0 -12 10 -12
21 0 13 -10 -13 -15 -10 -2 -19 -4 -20 -5 -2 -2 -7 -3 -12 -4 -5 0 -13 -5 -18
-10 -5 -5 -2 -6 6 -1 11 6 13 3 9 -13 -4 -15 -2 -19 8 -15 8 3 14 0 14 -6 0
-6 11 -21 25 -33 14 -12 25 -28 25 -35 0 -8 5 -11 10 -8 6 4 9 1 8 -7 -2 -7 2
-12 8 -11 6 1 11 -4 11 -12 0 -7 -8 -12 -19 -10 -10 2 -18 0 -18 -6 0 -5 5 -9
10 -9 6 0 5 -6 -2 -14 -7 -7 -20 -11 -28 -8 -8 3 -12 2 -8 -3 4 -4 0 -14 -10
-22 -16 -12 -16 -13 3 -8 16 5 16 3 -2 -6 -13 -7 -23 -16 -23 -21 0 -5 -5 -6
-11 -3 -6 4 -5 -2 3 -14 7 -12 17 -21 23 -21 5 0 3 -5 -5 -11 -12 -9 -11 -9 5
-4 28 10 85 14 85 6 0 -4 11 -8 25 -9 14 -1 31 -2 38 -3 6 -1 19 1 27 3 8 3
12 3 7 1 -4 -3 -5 -9 -2 -14 4 -5 -2 -6 -12 -2 -15 5 -16 4 -7 -8 9 -11 9 -17
-2 -27 -9 -8 -14 -9 -14 -2 0 6 -5 8 -12 3 -30 -18 -50 -9 -28 13 5 5 5 15 1
23 -6 9 -11 10 -15 2 -4 -6 -2 -11 4 -11 6 0 9 -4 5 -10 -3 -5 -11 -8 -18 -6
-7 1 -9 1 -4 -1 17 -10 5 -23 -23 -23 -16 0 -30 5 -30 10 0 6 -5 10 -11 10 -5
0 -7 -5 -3 -12 5 -7 2 -9 -7 -6 -8 3 -23 0 -34 -8 -18 -13 -18 -14 6 -15 13
-1 34 -1 47 -1 14 1 20 -3 16 -10 -4 -7 -3 -8 5 -4 6 4 8 12 5 18 -4 6 -1 8 7
6 8 -3 13 -11 11 -18 -2 -10 1 -10 14 1 12 9 15 9 10 2 -4 -7 -3 -13 1 -13 5
0 15 6 22 13 11 9 13 9 7 0 -4 -8 -1 -13 8 -13 9 0 16 5 16 11 0 5 5 7 10 4 7
-4 1 -16 -15 -31 -14 -13 -21 -24 -15 -24 6 0 8 -4 5 -10 -3 -6 1 -7 10 -3 11
4 13 8 5 13 -8 5 -7 10 2 18 10 8 13 4 15 -19 1 -15 -3 -31 -8 -35 -8 -4 -7
-9 2 -14 10 -7 10 -11 -1 -24 -7 -9 -10 -19 -6 -23 3 -3 6 -1 6 6 0 8 6 7 17
-4 14 -14 14 -18 2 -26 -10 -6 -5 -8 16 -6 25 2 30 -1 27 -18 -2 -12 0 -16 5
-9 12 17 87 12 95 -6 5 -12 7 -12 7 3 1 9 6 17 12 17 5 0 7 -5 3 -12 -5 -7 -3
-8 7 -3 20 13 59 15 59 4 0 -6 6 -7 13 -2 15 9 148 13 143 4 -3 -4 4 -13 16
-20 11 -7 17 -8 14 -3 -7 11 28 45 37 35 10 -9 77 -11 77 -1 0 4 5 8 11 8 5 0
8 -3 5 -8 -2 -4 2 -18 10 -32 l14 -25 -5 30 c-3 17 -2 24 1 18 3 -7 10 -13 15
-13 6 0 7 5 3 11 -4 7 5 9 30 6 20 -3 36 -1 36 4 0 5 4 9 10 9 5 0 7 -7 4 -15
-4 -8 -2 -15 4 -15 6 0 13 6 15 13 4 9 6 9 6 0 1 -7 11 -17 24 -23 20 -10 20
-10 5 3 -22 17 -23 27 -3 27 8 0 15 -4 15 -10 0 -5 5 -10 11 -10 5 0 8 4 5 9
-3 5 13 9 36 9 40 1 41 0 17 -12 -13 -7 -26 -9 -29 -5 -3 4 -11 1 -18 -7 -11
-12 -10 -13 5 -10 34 6 58 19 76 40 18 21 18 21 8 0 -6 -13 -6 -25 0 -35 8
-11 9 -10 7 5 -2 10 3 21 11 24 8 2 11 0 8 -5 -3 -5 3 -15 15 -22 11 -7 18 -9
15 -4 -3 4 1 16 8 26 11 15 17 16 34 8 23 -13 44 -14 37 -3 -3 5 1 9 8 9 7 0
12 -9 12 -20 -1 -11 6 -22 14 -24 11 -4 12 -2 2 5 -14 9 -6 42 10 42 6 0 4 -8
-3 -17 -12 -15 -12 -16 4 -10 11 4 20 1 23 -8 4 -8 10 -15 15 -15 5 0 2 11 -7
25 -15 23 -15 25 0 19 9 -3 16 -10 16 -15 0 -15 22 -10 36 9 13 16 14 16 8 0
-3 -10 -1 -18 5 -18 6 0 11 8 11 18 1 14 5 12 25 -11 29 -33 41 -36 21 -4 -15
22 -15 23 22 21 53 -3 54 -3 47 -13 -3 -5 0 -13 6 -17 8 -4 9 -3 5 4 -3 6 2
16 12 21 16 8 22 6 32 -14 7 -14 17 -25 21 -25 9 0 21 31 14 38 -3 3 -5 0 -5
-6 0 -7 -4 -12 -10 -12 -17 0 -11 14 11 28 12 8 18 9 15 3 -4 -5 3 -15 14 -21
11 -6 20 -8 20 -5 0 3 13 -1 29 -9 28 -15 41 -12 41 8 0 6 -4 5 -9 -2 -7 -11
-11 -11 -22 1 -8 7 -22 13 -32 11 -9 -1 -19 1 -22 6 -5 8 53 6 62 -3 3 -3 15
-2 28 3 13 5 26 6 30 2 10 -10 29 -9 37 3 5 6 8 3 8 -7 0 -10 5 -18 11 -18 5
0 7 5 3 11 -4 7 5 9 30 6 20 -3 36 -1 36 4 0 5 5 9 11 9 5 0 8 -4 5 -9 -3 -5
2 -12 11 -15 10 -4 14 -4 10 0 -4 4 5 13 19 21 32 16 37 16 28 1 -4 -7 -3 -8
5 -4 6 4 9 11 6 16 -7 12 5 41 15 35 5 -3 6 5 2 17 -3 14 -2 19 6 14 9 -5 9 0
2 18 -5 14 -7 33 -4 41 4 9 1 15 -7 15 -12 0 -12 2 -1 9 8 4 13 11 13 15 -3
18 1 17 25 -5 l27 -24 -13 25 c-11 21 -11 23 1 13 11 -9 18 -8 33 2 13 10 24
11 36 5 10 -5 20 -6 24 -3 3 3 6 1 6 -7 0 -9 3 -10 13 -1 8 6 16 9 19 6 2 -3
5 2 5 10 0 10 -10 15 -29 15 -25 0 -33 9 -29 33 0 4 -3 7 -9 7 -13 0 -13 -6 0
-31 7 -13 7 -19 0 -19 -5 0 -10 6 -10 13 0 9 -2 9 -9 -1 -6 -11 -10 -10 -16 5
-13 29 -16 73 -4 73 5 0 8 -4 4 -9 -3 -5 -1 -13 5 -16 6 -4 9 -1 8 6 -2 7 6
14 17 16 15 3 16 2 7 -5 -11 -7 -11 -10 3 -15 9 -4 13 -3 10 3 -3 6 -1 10 5
10 6 0 8 5 4 13 -6 9 -4 9 8 -1 13 -10 17 -10 22 3 3 9 10 14 15 10 5 -3 13 0
17 7 4 7 4 10 -1 6 -4 -4 -14 0 -22 10 -10 11 -12 12 -8 2 4 -8 0 -6 -9 5 -8
11 -29 34 -46 50 -26 26 -28 31 -12 31 11 0 18 -6 15 -12 -2 -7 0 -15 6 -19 7
-4 8 1 4 12 -5 15 -3 16 8 6 16 -16 29 -17 29 -2 0 5 -4 8 -9 5 -5 -3 -15 2
-22 11 -12 15 -12 16 3 10 10 -3 20 -3 22 2 7 11 -27 10 -41 -2 -9 -6 -13 -6
-13 1 0 6 -9 9 -21 7 -17 -4 -19 -2 -9 11 9 10 16 11 25 4 8 -7 16 -7 19 -2 3
5 19 8 36 6 16 -2 30 1 30 6 0 5 -12 7 -26 4 -15 -3 -23 -1 -20 5 4 5 1 13 -5
17 -8 5 -9 3 -4 -6 6 -9 4 -11 -5 -5 -8 5 -11 4 -6 -3 3 -6 2 -13 -4 -17 -22
-14 -8 25 16 44 15 12 23 21 19 21 -5 0 -1 8 9 19 21 23 30 62 12 55 -7 -3
-19 2 -26 11 -7 9 -9 15 -4 13 5 -2 20 5 34 15 13 9 21 18 17 18 -4 1 -13 2
-19 3 -7 1 -11 8 -10 16 2 8 0 12 -4 8 -4 -5 -15 4 -24 19 -14 23 -14 30 -3
41 7 7 13 19 13 25 0 7 -7 4 -14 -6 -8 -10 -18 -18 -23 -18 -4 1 -8 -5 -8 -11
-1 -7 -7 -12 -13 -10 -10 2 -10 -3 -3 -17 6 -10 8 -21 5 -24 -8 -8 18 -3 32 6
7 4 14 0 18 -8 3 -8 1 -17 -4 -20 -6 -4 -10 -3 -10 2 0 4 -16 9 -35 10 -24 1
-33 -2 -29 -9 4 -7 3 -8 -4 -4 -16 10 -3 36 15 29 13 -5 14 -3 3 17 -10 18 -9
24 1 30 13 9 15 15 23 88 3 30 1 40 -7 35 -9 -5 -9 -3 -2 8 14 19 12 55 -3 52
-6 -2 -9 4 -5 13 3 8 11 13 17 11 6 -3 19 2 28 11 10 8 18 10 18 5 0 -17 -28
-35 -42 -28 -7 4 -5 0 4 -8 10 -8 15 -17 11 -21 -14 -14 -11 -35 8 -52 10 -9
19 -12 19 -7 0 6 -8 14 -17 18 -17 6 -17 7 1 21 11 8 15 14 10 14 -6 0 -11 7
-11 15 0 8 4 15 8 15 4 0 11 9 14 20 9 27 24 25 19 -2 -4 -21 -4 -22 5 -3 12
26 -11 45 -47 39 -21 -3 -23 -2 -12 6 8 5 25 10 37 10 12 0 25 5 28 10 5 8 12
7 23 -2 15 -12 16 -11 3 5 -10 13 -17 15 -27 6 -26 -21 -14 -2 21 35 19 21 38
35 42 33 5 -3 9 10 11 29 1 19 3 50 5 69 1 23 7 35 17 35 10 0 9 4 -6 14 -11
8 -21 27 -22 46 -3 34 -24 64 -37 52 -5 -4 -5 -2 -2 5 4 6 -5 19 -21 30 -28
19 -38 61 -17 76 12 8 -25 4 -40 -5 -6 -3 -17 -1 -25 5 -20 16 -48 53 -34 44
7 -4 14 0 17 8 4 9 1 12 -9 8 -14 -5 -16 -1 -17 35 -1 9 -6 21 -12 25 -5 5 0
5 13 2 18 -5 22 -3 21 17 0 13 -3 17 -6 11 -2 -7 -10 -13 -16 -13 -26 0 14 23
45 26 33 4 33 4 12 -14 -26 -21 -54 -69 -32 -56 9 6 9 3 -2 -11 -15 -18 -14
-18 11 0 23 17 38 52 17 39 -4 -3 -8 0 -8 5 0 6 6 11 14 11 20 0 29 30 11 36
-8 3 -18 3 -24 0 -5 -4 -13 -1 -17 5 -5 8 -3 9 5 5 8 -6 11 -2 9 10 -2 12 2
18 11 16 9 -2 11 3 7 14 -4 11 -2 15 7 11 8 -3 14 1 14 9 0 7 -5 11 -11 7 -6
-3 0 5 14 18 14 13 21 21 16 17 -6 -5 -17 -8 -25 -8 -14 0 -14 1 -1 10 8 5 11
10 5 11 -5 0 -1 4 10 9 18 8 18 9 2 9 -10 1 -15 6 -12 11 3 6 1 10 -6 10 -8 0
-7 5 2 17 8 9 9 14 3 10 -13 -8 -34 34 -35 71 0 15 -3 21 -6 14 -4 -10 -9 -7
-17 10 -9 16 -9 25 -2 30 7 5 7 8 -1 8 -7 0 -13 7 -13 15 0 8 6 13 13 11 6 -1
9 -1 4 1 -4 3 -5 8 -2 12 2 4 -16 7 -40 6 -25 0 -45 3 -45 8 0 5 8 6 18 2 14
-5 15 -4 5 6 -15 15 -17 33 -3 24 6 -4 7 1 3 11 -5 13 -3 15 7 9 9 -5 11 -4 6
4 -4 6 -11 9 -16 6 -5 -3 -14 4 -21 16 -9 17 -8 23 2 30 7 4 10 12 5 16 -5 4
-11 2 -13 -4 -7 -18 -23 -16 -23 3 0 8 -4 12 -10 9 -5 -3 -10 -1 -10 5 0 7 -8
9 -19 5 -11 -3 -23 0 -27 6 -5 8 -3 10 7 4 8 -5 11 -4 6 1 -5 5 -12 9 -15 9
-4 0 -14 4 -22 10 -13 7 -13 6 -2 -7 10 -13 10 -17 -2 -21 -9 -4 -18 -1 -22 5
-5 7 -2 8 6 3 9 -6 11 -4 6 4 -6 9 -12 8 -26 -4 -10 -9 -20 -13 -23 -8 -3 4
-28 8 -56 7 -52 -2 -76 10 -41 19 10 3 21 0 24 -7 3 -8 5 -8 5 1 1 18 -11 22
-38 12 -14 -6 -21 -15 -18 -24 5 -11 1 -12 -17 -5 -13 5 -27 6 -31 2 -4 -4 -4
4 0 18 7 24 7 24 -8 5 -8 -11 -13 -23 -11 -27 3 -5 -6 -4 -19 1 -14 6 -28 7
-31 4 -3 -4 -6 -1 -6 7 0 10 -3 10 -16 -1 -13 -11 -15 -10 -12 5 2 13 -4 20
-19 22 -25 4 -39 -11 -22 -22 8 -5 9 -3 4 6 -5 8 -3 11 5 8 30 -10 18 -23 -20
-23 -35 0 -39 1 -24 12 10 7 13 13 7 13 -6 0 -16 -6 -22 -14 -13 -15 -35 -16
-48 -1 -4 4 -2 5 4 1 9 -5 11 -2 6 10 -5 14 -8 13 -19 -7 -7 -13 -13 -18 -14
-11 0 6 -7 12 -15 12 -8 0 -15 5 -15 10 0 6 -5 10 -12 10 -9 0 -9 -3 0 -12 18
-18 14 -32 -5 -17 -11 10 -14 10 -9 2 4 -7 3 -13 -2 -13 -14 0 -23 28 -11 34
5 2 4 3 -3 2 -7 -2 -12 -10 -11 -17 2 -11 -8 -15 -37 -14 -22 0 -40 4 -40 8 0
5 14 6 31 3 17 -2 28 -2 25 2 -13 12 -51 12 -61 -1 -10 -14 -87 -19 -79 -5 3
4 -2 8 -10 8 -9 0 -16 -4 -16 -8 0 -5 -18 -8 -40 -8 -28 0 -40 5 -40 14 0 12
3 12 15 2 13 -11 14 -10 9 3 -6 17 -37 18 -51 2 -5 -4 -2 -5 5 -1 7 4 12 2 12
-6 0 -8 -12 -13 -29 -13 -16 -1 -27 3 -25 7 3 4 0 8 -5 8 -6 0 -11 -5 -11 -10
0 -6 -6 -5 -14 2 -8 7 -12 16 -10 19 2 3 -3 6 -11 6 -13 0 -13 -3 0 -17 14
-16 14 -18 0 -24 -9 -3 -13 -2 -10 3 3 5 1 12 -5 16 -5 3 -10 2 -10 -2 0 -5
-9 -9 -20 -10 -11 -1 -18 2 -16 6 3 4 -4 13 -16 20 -11 7 -17 8 -14 2 9 -14
-14 -25 -58 -27 -37 -1 -38 -1 -15 11 18 10 26 10 31 2 6 -9 8 -8 8 1 0 7 5
10 10 7 6 -3 10 -1 10 5 0 14 -46 5 -76 -15 -13 -8 -24 -13 -24 -9 0 4 -7 1
-16 -6 -8 -8 -14 -9 -12 -4 2 5 -1 9 -7 9 -5 0 -9 -3 -8 -7 2 -4 -8 -3 -21 2
-13 5 -27 6 -30 3 -3 -4 -6 -1 -6 5 0 6 -7 9 -17 5 -12 -5 -14 -3 -8 8 4 8 5
11 0 7 -4 -4 -14 -3 -22 4 -7 6 -16 8 -20 4 -3 -3 -1 -6 5 -6 6 0 16 -9 22
-20 9 -16 8 -18 -5 -14 -8 4 -15 10 -15 15 0 5 -5 9 -11 9 -5 0 -8 -4 -5 -8
11 -19 -35 -9 -49 11 -8 12 -15 17 -15 11z m361 -37 c-10 -9 -11 -8 -5 6 3 10
9 15 12 12 3 -3 0 -11 -7 -18z m-440 -37 c0 8 3 10 5 4 2 -6 20 -9 38 -8 22 2
39 -3 50 -15 15 -16 15 -18 -1 -18 -10 0 -23 4 -30 9 -7 6 -15 3 -22 -9 -7
-12 -10 -13 -11 -4 0 10 -3 11 -13 2 -8 -6 -17 -7 -22 -3 -4 4 -4 -4 0 -18 7
-23 6 -24 -7 -7 -13 18 -15 18 -29 1 -12 -16 -12 -17 4 -11 9 4 17 2 17 -4 0
-6 -8 -9 -19 -6 -10 2 -27 0 -37 -5 -12 -6 -10 -2 6 12 21 18 22 21 5 15 -16
-5 -18 -4 -7 6 6 7 12 17 12 22 0 4 -6 5 -12 1 -8 -4 -10 -3 -5 2 5 5 14 9 20
9 7 1 11 6 10 13 -2 6 4 9 12 6 9 -4 15 0 15 7 0 11 3 11 10 -1 9 -13 10 -13
11 0z m119 -10 c0 -15 39 -18 51 -4 6 8 16 14 22 14 17 0 -35 -34 -53 -35 -9
-1 -24 9 -33 22 -15 19 -15 22 -2 17 8 -3 15 -10 15 -14z m144 12 c3 -5 -1 -9
-9 -9 -8 0 -12 4 -9 9 3 4 7 8 9 8 2 0 6 -4 9 -8z m58 1 c-6 -2 -9 -10 -6 -15
4 -7 2 -8 -5 -4 -13 9 -5 26 12 25 9 0 8 -2 -1 -6z m115 -8 c0 -8 -5 -12 -10
-8 -5 3 -6 -4 -3 -18 6 -21 5 -22 -4 -6 -9 14 -9 22 0 33 15 18 17 18 17 -1z
m477 6 c3 -5 -5 -16 -19 -25 -14 -9 -25 -12 -25 -7 0 5 9 13 20 16 11 4 18 11
15 16 -4 5 -4 9 -1 9 3 0 7 -4 10 -9z m121 0 c3 -5 2 -12 -3 -15 -5 -3 -9 1
-9 9 0 17 3 19 12 6z m80 -12 c-4 -5 -12 -9 -18 -8 -9 0 -8 2 1 6 6 2 9 10 6
15 -4 7 -2 8 5 4 6 -4 9 -12 6 -17z m110 12 c-3 -5 5 -17 17 -25 12 -9 18 -16
12 -16 -15 0 -45 35 -37 43 9 10 15 8 8 -2z m49 -11 c-6 -6 -15 -5 -24 1 -13
9 -12 10 3 5 9 -3 17 0 17 6 0 6 3 8 7 5 4 -4 2 -12 -3 -17z m119 8 c-4 -7 -8
-16 -8 -20 0 -3 -4 -10 -8 -15 -5 -4 -7 -2 -5 6 2 7 -2 15 -9 18 -7 3 -10 -3
-6 -15 2 -11 0 -23 -5 -26 -6 -3 -8 2 -5 13 7 27 -17 38 -34 16 -12 -17 -13
-17 -13 -2 0 17 5 19 52 21 15 1 30 5 34 9 12 11 16 8 7 -5z m105 5 c-4 -14
22 -53 35 -52 9 0 9 2 0 6 -7 2 -13 9 -13 14 0 6 5 7 12 3 7 -4 8 -3 4 5 -4 6
-12 9 -17 6 -5 -4 -9 -1 -9 4 0 16 16 13 30 -4 16 -20 6 -44 -19 -42 -11 0
-17 5 -14 11 4 5 -1 7 -10 3 -10 -4 -16 -2 -14 5 1 6 -4 13 -12 16 -8 2 -11 0
-8 -5 3 -5 0 -10 -8 -10 -12 0 -12 3 -2 16 10 12 9 14 -5 8 -10 -4 -18 -2 -18
4 0 6 9 9 19 6 10 -2 25 -1 32 4 17 11 20 11 17 2z m-1204 -19 c3 -8 2 -12 -4
-9 -6 3 -10 10 -10 16 0 14 7 11 14 -7z m103 1 c5 -4 2 -4 -6 0 -10 6 -13 4
-9 -7 4 -9 0 -15 -8 -15 -8 0 -12 3 -9 5 3 3 -2 10 -11 16 -13 10 -11 12 10
11 14 -1 29 -5 33 -10z m352 -7 c14 -23 2 -24 -15 0 -13 16 -13 16 -14 0 0
-10 -4 -18 -10 -18 -5 0 -7 6 -4 14 7 19 -24 15 -38 -5 -8 -11 -9 -11 -4 4 4
12 0 17 -14 17 -14 0 -18 -5 -14 -17 5 -15 4 -15 -6 1 -9 13 -14 15 -20 6 -5
-9 -9 -8 -13 2 -4 11 10 14 68 14 59 0 75 -3 84 -18z m45 11 c-6 -11 -31 -12
-37 -1 -3 4 6 8 19 8 13 1 21 -2 18 -7z m17 -16 c-12 -20 -14 -14 -5 12 4 9 9
14 11 11 3 -2 0 -13 -6 -23z m49 16 c0 -5 -4 -7 -10 -4 -11 7 -14 -8 -3 -19
11 -11 14 -46 4 -46 -5 0 -8 8 -6 18 1 9 -2 22 -7 29 -10 13 -3 33 13 33 5 0
9 -5 9 -11z m198 -13 c0 -14 -7 -27 -15 -30 -9 -4 -11 -2 -6 7 8 12 9 17 12
37 2 20 9 9 9 -14z m132 14 c-18 -12 -30 -13 -30 -2 0 4 10 9 22 9 18 2 20 0
8 -7z m226 -17 c-10 -10 -19 5 -10 18 6 11 8 11 12 0 2 -7 1 -15 -2 -18z
m-946 -8 c14 -18 13 -19 -1 -8 -9 7 -19 10 -23 6 -4 -4 -4 1 0 10 3 10 7 17 8
15 1 -2 8 -12 16 -23z m80 1 c12 -19 12 -20 -3 -8 -9 8 -20 11 -25 8 -5 -3 -9
1 -9 8 0 20 23 15 37 -8z m27 9 c0 -8 -4 -12 -9 -9 -4 3 -8 9 -8 15 0 5 4 9 8
9 5 0 9 -7 9 -15z m416 0 c4 -8 3 -16 -1 -19 -4 -3 -9 4 -9 15 -2 23 3 25 10
4z m-790 -1 c-7 -3 -9 -13 -6 -22 4 -14 3 -14 -5 -2 -12 16 -7 30 11 29 9 0 9
-2 0 -5z m67 -4 c0 -5 -2 -10 -4 -10 -3 0 -8 5 -11 10 -3 6 -1 10 4 10 6 0 11
-4 11 -10z m65 0 c-3 -5 -12 -10 -18 -10 -7 0 -6 4 3 10 19 12 23 12 15 0z
m619 2 c2 -4 0 -14 -6 -22 -8 -12 -9 -11 -4 4 5 13 2 17 -9 12 -8 -3 -15 -1
-15 4 0 12 27 13 34 2z m196 0 c0 -4 -9 -8 -19 -8 -11 0 -17 4 -15 8 3 4 12 8
20 8 8 0 14 -4 14 -8z m55 -2 c3 -5 1 -10 -4 -10 -6 0 -11 5 -11 10 0 6 2 10
4 10 3 0 8 -4 11 -10z m-105 -4 c0 -2 -7 -9 -15 -16 -13 -11 -14 -10 -9 4 5
14 24 23 24 12z m-750 -9 c0 -2 -10 -12 -22 -23 l-23 -19 19 23 c18 21 26 27
26 19z m288 -12 c3 -3 -4 -4 -16 -2 -12 2 -24 6 -28 10 -4 3 4 4 16 2 12 -2
25 -7 28 -10z m276 7 c2 -4 -5 -9 -17 -9 -17 -2 -19 0 -7 7 18 12 18 12 24 2z
m311 -2 c-3 -5 -12 -10 -18 -10 -7 0 -6 4 3 10 19 12 23 12 15 0z m-533 -15
c2 3 5 -2 5 -10 0 -19 0 -19 -23 7 -12 14 -13 18 -3 10 9 -6 18 -10 21 -7z
m695 -7 c-3 -8 -6 -5 -6 6 -1 11 2 17 5 13 3 -3 4 -12 1 -19z m173 7 c-7 -8
-17 -15 -23 -15 -6 0 -2 7 9 15 25 19 30 19 14 0z m60 6 c0 -6 -4 -12 -8 -15
-5 -3 -9 1 -9 9 0 8 4 15 9 15 4 0 8 -4 8 -9z m-880 -5 c0 -3 -4 -8 -10 -11
-5 -3 -10 -1 -10 4 0 6 5 11 10 11 6 0 10 -2 10 -4z m-246 -24 c3 -5 -1 -9 -9
-9 -8 0 -12 4 -9 9 3 4 7 8 9 8 2 0 6 -4 9 -8z m457 -15 c-10 -9 -11 -8 -5 6
3 10 9 15 12 12 3 -3 0 -11 -7 -18z m86 8 c0 -8 -4 -12 -9 -9 -5 3 -6 10 -3
15 9 13 12 11 12 -6z m103 5 c0 -5 -2 -10 -4 -10 -3 0 -8 5 -11 10 -3 6 -1 10
4 10 6 0 11 -4 11 -10z m74 2 c3 -5 -1 -9 -9 -9 -8 0 -12 4 -9 9 3 4 7 8 9 8
2 0 6 -4 9 -8z m-1389 -21 c-3 -6 -11 -8 -17 -5 -6 4 -5 9 3 15 16 10 23 4 14
-10z m55 -1 c0 -5 -5 -10 -11 -10 -5 0 -7 5 -4 10 3 6 8 10 11 10 2 0 4 -4 4
-10z m94 -5 c11 -8 15 -15 9 -15 -7 0 -15 5 -18 10 -5 8 -11 8 -20 0 -10 -8
-15 -8 -21 1 -4 8 -3 9 4 5 7 -4 12 -2 12 3 0 15 11 13 34 -4z m1791 -555 c3
-5 1 -10 -4 -10 -6 0 -11 5 -11 10 0 6 2 10 4 10 3 0 8 -4 11 -10z m-1990 -50
c-10 -11 -21 -18 -23 -15 -3 3 3 12 14 20 27 20 30 18 9 -5z m-37 -22 c-6 -18
-25 -21 -31 -5 -3 8 3 13 15 14 10 1 18 -3 16 -9z m1972 -389 c0 -6 -4 -8 -9
-4 -5 3 -11 -3 -13 -12 -3 -16 -5 -15 -9 2 -5 16 -1 21 12 22 11 1 19 -3 19
-8z m30 -4 c-7 -9 -15 -13 -19 -10 -3 3 1 10 9 15 21 14 24 12 10 -5z m-1930
-215 c11 -6 17 -17 14 -25 -4 -8 -10 -12 -15 -9 -5 3 -9 1 -9 -5 0 -17 25 -18
38 -2 11 14 12 13 2 -6 -5 -12 -15 -25 -22 -29 -7 -4 -8 -3 -4 4 6 11 -5 16
-26 13 -4 0 -5 5 -2 13 3 8 1 17 -5 20 -6 4 -8 13 -4 21 6 18 9 18 33 5z
m1925 -50 c-5 -8 -11 -8 -17 -2 -6 6 -7 16 -3 22 5 8 11 8 17 2 6 -6 7 -16 3
-22z m-1955 10 c0 -5 -4 -10 -10 -10 -5 0 -10 5 -10 10 0 6 5 10 10 10 6 0 10
-4 10 -10z m1879 -12 c-16 -31 -16 -31 -23 -13 -3 9 -2 14 3 11 5 -3 11 1 15
9 3 8 8 15 11 15 3 0 0 -10 -6 -22z m-1869 -18 c8 -5 11 -13 6 -17 -5 -4 -11
-2 -13 5 -4 10 -8 10 -19 1 -14 -11 -20 1 -7 14 8 9 15 9 33 -3z m1884 -422
c-3 -5 0 -16 8 -25 11 -14 11 -15 -2 -11 -8 3 -23 1 -32 -3 -14 -7 -16 -5 -13
11 3 17 0 20 -15 15 -12 -4 -20 -2 -20 5 0 6 5 8 10 5 6 -3 10 0 10 9 0 8 -3
16 -7 19 -9 5 16 -2 37 -11 13 -5 13 -4 0 14 -14 19 -14 19 7 0 13 -10 20 -23
17 -28z m-84 17 c0 -8 -4 -15 -10 -15 -5 0 -7 7 -4 15 4 8 8 15 10 15 2 0 4
-7 4 -15z m-1670 -25 c0 -5 -5 -10 -11 -10 -5 0 -7 5 -4 10 3 6 8 10 11 10 2
0 4 -4 4 -10z m35 -139 c-3 -5 6 -18 20 -29 19 -15 22 -21 10 -25 -7 -3 -24 3
-37 14 -20 17 -21 18 -3 12 17 -6 18 -4 8 9 -7 8 -10 18 -6 21 9 10 15 8 8 -2z
m1028 -106 c-3 -9 -8 -14 -10 -11 -3 3 -2 9 2 15 9 16 15 13 8 -4z m-680 -10
c-3 -9 -8 -14 -10 -11 -3 3 -2 9 2 15 9 16 15 13 8 -4z m480 0 c-3 -9 -8 -14
-10 -11 -3 3 -2 9 2 15 9 16 15 13 8 -4z"/>
<path d="M557 2348 c-6 -3 -12 -13 -13 -22 -2 -14 0 -14 22 1 13 8 24 12 24 8
0 -4 6 -2 13 4 8 6 16 8 19 5 3 -3 9 -1 12 5 7 11 -59 11 -77 -1z"/>
<path d="M655 2350 c3 -5 11 -10 16 -10 6 0 7 5 4 10 -3 6 -11 10 -16 10 -6 0
-7 -4 -4 -10z"/>
<path d="M375 1010 c-8 -13 9 -20 24 -11 10 6 9 10 -3 14 -8 3 -18 2 -21 -3z"/>
<path d="M2230 526 c7 -7 13 -7 20 0 6 6 3 10 -10 10 -13 0 -16 -4 -10 -10z"/>
<path d="M820 2435 c7 -8 20 -14 29 -14 13 1 13 2 -1 6 -10 2 -18 9 -18 14 0
5 -5 9 -11 9 -8 0 -8 -5 1 -15z"/>
<path d="M1070 2440 c0 -5 5 -10 10 -10 6 0 10 5 10 10 0 6 -4 10 -10 10 -5 0
-10 -4 -10 -10z"/>
<path d="M1269 2437 c11 -13 17 -15 28 -6 7 7 11 15 7 18 -4 3 -9 0 -11 -7 -4
-10 -8 -10 -21 0 -15 12 -16 11 -3 -5z"/>
<path d="M1357 2437 c-3 -8 1 -14 8 -14 7 0 11 6 8 14 -3 7 -6 13 -8 13 -2 0
-5 -6 -8 -13z"/>
<path d="M1992 2434 c-7 -8 -8 -14 -3 -14 10 0 25 19 20 25 -2 1 -10 -3 -17
-11z"/>
<path d="M2021 2424 c0 -11 3 -14 6 -6 3 7 2 16 -1 19 -3 4 -6 -2 -5 -13z"/>
<path d="M473 2385 c0 -8 4 -12 9 -9 5 3 6 10 3 15 -9 13 -12 11 -12 -6z"/>
<path d="M430 2319 c0 -5 5 -7 10 -4 6 3 10 8 10 11 0 2 -4 4 -10 4 -5 0 -10
-5 -10 -11z"/>
<path d="M2250 2306 c0 -2 7 -7 16 -10 8 -3 12 -2 9 4 -6 10 -25 14 -25 6z"/>
<path d="M2235 2280 c-3 -5 -1 -10 4 -10 6 0 11 5 11 10 0 6 -2 10 -4 10 -3 0
-8 -4 -11 -10z"/>
<path d="M2296 2267 c3 -10 9 -15 12 -12 3 3 0 11 -7 18 -10 9 -11 8 -5 -6z"/>
<path d="M295 2229 c-4 -6 -5 -12 -2 -15 2 -3 7 2 10 11 7 17 1 20 -8 4z"/>
<path d="M2303 2213 c-3 -10 -8 -22 -11 -28 -3 -5 -2 -7 3 -3 4 4 14 3 22 -4
7 -6 16 -8 20 -4 3 3 1 6 -6 6 -7 0 -9 5 -6 10 4 6 12 7 18 3 7 -3 3 3 -7 15
-23 27 -25 27 -33 5z"/>
<path d="M375 2201 c-3 -5 0 -13 6 -17 8 -5 9 -3 4 6 -6 10 -1 11 21 6 21 -5
25 -4 14 4 -19 12 -37 13 -45 1z"/>
<path d="M2330 2150 c-9 -6 -10 -10 -3 -10 6 0 15 5 18 10 8 12 4 12 -15 0z"/>
<path d="M255 2120 c-3 -5 -1 -10 4 -10 6 0 11 5 11 10 0 6 -2 10 -4 10 -3 0
-8 -4 -11 -10z"/>
<path d="M2340 2100 c0 -4 7 -7 15 -6 23 3 26 12 5 13 -11 1 -20 -2 -20 -7z"/>
<path d="M235 2080 c-3 -5 -1 -10 4 -10 6 0 11 5 11 10 0 6 -2 10 -4 10 -3 0
-8 -4 -11 -10z"/>
<path d="M2395 2040 c-3 -5 -1 -10 4 -10 6 0 11 5 11 10 0 6 -2 10 -4 10 -3 0
-8 -4 -11 -10z"/>
<path d="M2330 1906 c0 -2 7 -7 16 -10 8 -3 12 -2 9 4 -6 10 -25 14 -25 6z"/>
<path d="M2367 1880 c-12 -19 -14 -30 -6 -30 6 0 9 -6 6 -13 -3 -7 1 -21 9
-32 8 -10 14 -14 14 -9 0 6 -5 15 -12 22 -9 9 -9 12 1 12 7 0 9 5 6 10 -3 6
-2 10 3 10 6 0 12 7 15 14 4 11 1 13 -10 9 -12 -5 -14 -1 -8 15 9 30 2 27 -18
-8z"/>
<path d="M210 1862 c0 -11 27 -42 37 -42 3 0 -2 10 -13 23 -10 12 -20 24 -21
26 -2 2 -3 -1 -3 -7z"/>
<path d="M186 1842 c-3 -5 1 -9 9 -9 8 0 12 4 9 9 -3 4 -7 8 -9 8 -2 0 -6 -4
-9 -8z"/>
<path d="M254 1805 c-5 -12 -9 -13 -20 -4 -12 9 -13 9 -8 -4 3 -9 14 -15 24
-14 12 1 16 6 12 17 -5 13 -4 13 14 0 18 -14 18 -14 5 3 -17 21 -20 21 -27 2z"/>
<path d="M2336 1803 c-4 -5 -12 -8 -18 -8 -6 0 -12 -8 -14 -18 -1 -9 1 -15 5
-13 4 3 7 -5 8 -17 0 -12 -1 -16 -4 -9 -3 6 -9 12 -15 12 -6 0 -3 -9 6 -19 15
-17 21 -18 37 -8 11 7 18 19 16 28 -3 9 0 23 5 32 7 13 5 15 -8 10 -12 -4 -15
-3 -10 5 8 13 3 16 -8 5z m14 -57 c0 -2 -8 -10 -17 -17 -16 -13 -17 -12 -4 4
13 16 21 21 21 13z"/>
<path d="M2370 1738 c0 -4 4 -8 9 -8 6 0 12 4 15 8 3 5 -1 9 -9 9 -8 0 -15 -4
-15 -9z"/>
<path d="M2410 1720 c0 -5 5 -10 11 -10 5 0 7 5 4 10 -3 6 -8 10 -11 10 -2 0
-4 -4 -4 -10z"/>
<path d="M265 1710 c-4 -6 -11 -7 -17 -4 -7 4 -8 2 -4 -5 4 -6 12 -9 17 -6 5
4 9 1 9 -5 0 -7 7 -10 15 -6 8 3 14 0 12 -6 -1 -5 6 -12 15 -13 15 -3 14 1 -4
26 -23 31 -33 35 -43 19z m25 -10 c0 -5 -2 -10 -4 -10 -3 0 -8 5 -11 10 -3 6
-1 10 4 10 6 0 11 -4 11 -10z"/>
<path d="M2416 1687 c3 -10 9 -15 12 -12 3 3 0 11 -7 18 -10 9 -11 8 -5 -6z"/>
<path d="M2380 1686 c0 -2 7 -7 16 -10 8 -3 12 -2 9 4 -6 10 -25 14 -25 6z"/>
<path d="M240 1670 c-9 -6 -10 -10 -3 -10 6 0 15 5 18 10 8 12 4 12 -15 0z"/>
<path d="M270 1660 c0 -5 5 -10 10 -10 6 0 10 5 10 10 0 6 -4 10 -10 10 -5 0
-10 -4 -10 -10z"/>
<path d="M2380 1661 c0 -14 32 -29 49 -23 10 3 11 0 5 -9 -6 -11 -5 -12 8 -2
8 7 19 9 23 5 5 -4 5 -2 2 5 -4 6 -19 10 -33 8 -14 -1 -32 4 -40 12 -8 8 -14
10 -14 4z"/>
<path d="M238 1643 c7 -3 16 -2 19 1 4 3 -2 6 -13 5 -11 0 -14 -3 -6 -6z"/>
<path d="M250 1622 c0 -7 -8 -12 -17 -12 -15 0 -16 -2 -3 -10 10 -6 17 -4 23
6 5 9 6 18 3 21 -3 4 -6 1 -6 -5z"/>
<path d="M194 1586 c1 -14 4 -28 7 -31 3 -3 5 6 5 19 -1 14 -4 28 -7 31 -3 3
-5 -6 -5 -19z"/>
<path d="M2463 1535 c0 -6 6 -12 12 -12 6 0 12 6 12 12 0 6 -6 12 -12 12 -6 0
-12 -6 -12 -12z"/>
<path d="M2475 1429 c-4 -6 -5 -12 -2 -15 2 -3 7 2 10 11 7 17 1 20 -8 4z"/>
<path d="M205 1380 c-3 -6 1 -7 9 -4 18 7 21 14 7 14 -6 0 -13 -4 -16 -10z"/>
<path d="M270 1380 c0 -5 5 -10 11 -10 5 0 7 5 4 10 -3 6 -8 10 -11 10 -2 0
-4 -4 -4 -10z"/>
<path d="M237 1373 c-10 -10 -8 -23 4 -23 5 0 8 4 5 9 -4 5 0 12 6 14 7 3 8 6
2 6 -6 1 -14 -2 -17 -6z"/>
<path d="M195 1321 c-3 -5 -2 -12 3 -15 5 -3 9 1 9 9 0 17 -3 19 -12 6z"/>
<path d="M2420 1325 c0 -7 30 -13 34 -7 3 4 -4 9 -15 9 -10 1 -19 0 -19 -2z"/>
<path d="M2410 1306 c0 -2 7 -7 16 -10 8 -3 12 -2 9 4 -6 10 -25 14 -25 6z"/>
<path d="M276 1277 c3 -10 9 -15 12 -12 3 3 0 11 -7 18 -10 9 -11 8 -5 -6z"/>
<path d="M2455 1280 c3 -5 8 -10 11 -10 2 0 4 5 4 10 0 6 -5 10 -11 10 -5 0
-7 -4 -4 -10z"/>
<path d="M257 1259 c4 -13 8 -18 11 -10 2 7 -1 18 -6 23 -8 8 -9 4 -5 -13z"/>
<path d="M2390 1261 c0 -6 4 -13 10 -16 6 -3 7 1 4 9 -7 18 -14 21 -14 7z"/>
<path d="M307 1251 c9 -11 8 -17 -3 -29 -22 -22 -1 -38 25 -20 21 15 21 15 -7
39 -15 13 -22 18 -15 10z m18 -40 c-3 -6 -11 -11 -17 -11 -6 0 -6 6 2 15 14
17 26 13 15 -4z"/>
<path d="M273 1185 c0 -8 4 -12 9 -9 5 3 6 10 3 15 -9 13 -12 11 -12 -6z"/>
<path d="M2368 1172 c9 -10 19 -17 21 -16 6 5 -20 34 -30 34 -5 0 -1 -8 9 -18z"/>
<path d="M279 1153 c-12 -16 -12 -17 2 -6 9 7 20 9 24 5 5 -4 5 -1 1 6 -9 16
-11 15 -27 -5z"/>
<path d="M312 1144 c-7 -8 -8 -14 -3 -14 10 0 25 19 20 25 -2 1 -10 -3 -17
-11z"/>
<path d="M2350 1150 c-9 -6 -10 -10 -3 -10 6 0 15 5 18 10 8 12 4 12 -15 0z"/>
<path d="M336 1134 c-8 -20 -8 -24 2 -24 4 0 8 9 9 20 2 24 -3 26 -11 4z"/>
<path d="M266 1113 c-3 -8 -10 -11 -16 -8 -5 3 -10 1 -10 -4 0 -6 8 -11 18
-11 11 0 13 -3 6 -8 -9 -5 -8 -10 2 -19 10 -10 15 -10 20 -1 5 8 10 6 16 -8 6
-14 7 -9 5 18 -2 32 -1 35 13 25 13 -10 13 -10 2 4 -18 23 -49 30 -56 12z"/>
<path d="M2357 1110 c-2 -10 0 -26 5 -36 6 -10 -3 -4 -19 14 -24 27 -29 29
-29 13 0 -11 2 -18 5 -16 2 3 13 -3 23 -12 25 -22 45 -25 52 -6 4 9 2 12 -7 7
-8 -5 -8 -2 2 9 7 9 18 14 25 10 6 -3 2 3 -9 14 -25 24 -42 25 -48 3z"/>
<path d="M328 1068 c-4 -9 3 -14 21 -15 14 -1 19 1 11 4 -8 3 -18 10 -21 15
-3 5 -9 3 -11 -4z"/>
<path d="M2307 1056 c-4 -10 -1 -13 9 -9 15 6 19 23 5 23 -5 0 -11 -7 -14 -14z"/>
<path d="M275 1019 c-3 -4 2 -6 10 -5 21 3 28 13 10 13 -9 0 -18 -4 -20 -8z"/>
<path d="M310 1000 c0 -5 5 -10 10 -10 6 0 10 5 10 10 0 6 -4 10 -10 10 -5 0
-10 -4 -10 -10z"/>
<path d="M2350 1001 c0 -5 8 -15 18 -22 15 -12 16 -12 5 2 -7 9 -10 19 -6 22
3 4 1 7 -5 7 -7 0 -12 -4 -12 -9z"/>
<path d="M2386 998 c3 -5 10 -6 15 -3 13 9 11 12 -6 12 -8 0 -12 -4 -9 -9z"/>
<path d="M2385 960 c-3 -6 1 -7 9 -4 18 7 21 14 7 14 -6 0 -13 -4 -16 -10z"/>
<path d="M2380 899 c0 -5 5 -7 10 -4 6 3 10 8 10 11 0 2 -4 4 -10 4 -5 0 -10
-5 -10 -11z"/>
<path d="M2415 889 c-4 -6 -5 -12 -2 -15 2 -3 7 2 10 11 7 17 1 20 -8 4z"/>
<path d="M2364 808 c-4 -7 -3 -10 1 -5 5 4 18 -1 29 -10 21 -18 21 -18 2 5
-22 26 -23 26 -32 10z"/>
<path d="M270 796 c7 -7 13 -7 20 0 6 6 3 10 -10 10 -13 0 -16 -4 -10 -10z"/>
<path d="M295 779 c-4 -6 -5 -12 -2 -15 2 -3 7 2 10 11 7 17 1 20 -8 4z"/>
<path d="M315 770 c-4 -6 0 -19 9 -29 21 -23 20 -30 -1 -26 -10 1 -12 0 -5 -2
18 -6 15 -21 -5 -26 -10 -3 -6 -4 8 -4 17 1 26 7 25 17 -1 8 6 14 14 12 10 -1
9 2 -4 13 -11 8 -21 22 -22 31 -3 22 -11 27 -19 14z"/>
<path d="M290 740 c0 -5 5 -10 11 -10 5 0 7 5 4 10 -3 6 -8 10 -11 10 -2 0 -4
-4 -4 -10z"/>
<path d="M280 660 c-8 -5 -10 -10 -5 -10 6 0 17 5 25 10 8 5 11 10 5 10 -5 0
-17 -5 -25 -10z"/>
<path d="M2376 647 c3 -10 9 -15 12 -12 3 3 0 11 -7 18 -10 9 -11 8 -5 -6z"/>
<path d="M356 552 c-3 -6 -1 -14 5 -17 15 -10 25 3 12 16 -7 7 -13 7 -17 1z"/>
<path d="M423 527 c1 -17 6 -22 13 -16 6 5 14 5 19 1 4 -4 6 -1 4 6 -3 8 -8
13 -13 12 -5 -1 -12 4 -16 11 -5 7 -7 2 -7 -14z"/>
<path d="M2346 522 c-3 -5 1 -9 9 -9 8 0 12 4 9 9 -3 4 -7 8 -9 8 -2 0 -6 -4
-9 -8z"/>
<path d="M2213 445 c0 -8 6 -16 14 -19 11 -4 11 -1 3 14 -13 24 -17 25 -17 5z"/>
<path d="M2215 400 c3 -5 8 -10 11 -10 2 0 4 5 4 10 0 6 -5 10 -11 10 -5 0 -7
-4 -4 -10z"/>
<path d="M2260 405 c0 -2 6 -8 13 -14 10 -8 14 -7 14 2 0 8 -6 14 -14 14 -7 0
-13 -1 -13 -2z"/>
<path d="M2235 379 c-4 -6 -4 -13 -1 -16 3 -4 6 -1 6 6 0 7 5 9 12 5 7 -4 8
-3 4 4 -9 15 -13 15 -21 1z"/>
<path d="M425 340 c-3 -6 1 -7 9 -4 18 7 21 14 7 14 -6 0 -13 -4 -16 -10z"/>
<path d="M916 255 c-9 -26 -7 -32 5 -12 6 10 9 21 6 23 -2 3 -7 -2 -11 -11z"/>
<path d="M1404 262 c4 -7 2 -12 -3 -12 -6 0 -11 -4 -11 -10 0 -15 17 -12 23 5
4 8 1 17 -5 21 -7 4 -8 3 -4 -4z"/>
<path d="M1670 264 c0 -6 6 -17 14 -23 11 -9 16 -9 22 1 4 7 4 10 -1 6 -4 -4
-14 0 -21 10 -7 9 -14 12 -14 6z"/>
<path d="M1956 257 c3 -10 9 -15 12 -12 3 3 0 11 -7 18 -10 9 -11 8 -5 -6z"/>
<path d="M776 252 c-7 -12 3 -19 22 -16 6 1 17 2 22 3 6 0 10 6 10 12 0 8 -4
8 -13 0 -10 -7 -17 -7 -24 0 -7 7 -13 7 -17 1z"/>
<path d="M938 243 c-6 -8 -8 -16 -4 -20 3 -3 6 -1 6 5 0 6 9 9 19 7 11 -2 24
2 30 9 8 9 4 12 -15 12 -14 0 -30 -6 -36 -13z"/>
<path d="M1083 248 c-17 -22 -26 -45 -10 -26 8 10 16 16 19 13 2 -3 5 2 5 10
0 18 -2 18 -14 3z"/>
<path d="M1750 251 c0 -5 7 -12 16 -15 14 -5 15 -4 4 9 -14 17 -20 19 -20 6z"/>
<path d="M659 248 c0 -2 -2 -10 -4 -19 -4 -23 25 -18 37 7 9 18 9 18 -6 0 -14
-18 -21 -15 -17 7 1 6 -8 11 -10 5z"/>
<path d="M1110 240 c0 -5 5 -10 10 -10 6 0 10 5 10 10 0 6 -4 10 -10 10 -5 0
-10 -4 -10 -10z"/>
<path d="M1616 242 c-6 -10 -2 -39 7 -48 3 -4 4 6 1 21 -3 19 -1 24 7 19 8 -4
9 -3 5 4 -8 14 -13 15 -20 4z"/>
<path d="M1144 225 c-13 -11 -14 -14 -4 -13 9 2 14 -3 12 -12 -2 -8 0 -12 4
-7 6 6 14 47 9 47 -1 0 -10 -7 -21 -15z"/>
<path d="M1286 231 c-19 -7 -19 -8 0 -13 13 -3 21 0 21 8 0 8 -1 14 -1 13 -1
0 -10 -4 -20 -8z"/>
<path d="M1581 224 c0 -11 3 -14 6 -6 3 7 2 16 -1 19 -3 4 -6 -2 -5 -13z"/>
<path d="M1850 230 c-8 -5 -12 -12 -9 -15 4 -3 12 1 19 10 14 17 11 19 -10 5z"/>
<path d="M1999 238 c-5 -18 -6 -38 -1 -34 7 8 12 36 6 36 -2 0 -4 -1 -5 -2z"/>
<path d="M730 222 c0 -4 9 -8 20 -9 11 -1 20 2 20 5 0 4 -9 8 -20 9 -11 1 -20
-2 -20 -5z"/>
<path d="M860 222 c0 -5 7 -9 15 -9 8 0 12 4 9 9 -3 4 -9 8 -15 8 -5 0 -9 -4
-9 -8z"/>
<path d="M990 221 c0 -6 4 -13 10 -16 6 -3 7 1 4 9 -7 18 -14 21 -14 7z"/>
<path d="M1557 215 c-4 -8 -3 -16 1 -19 4 -3 9 4 9 15 2 23 -3 25 -10 4z"/>
<path d="M1875 221 c-3 -5 -2 -12 3 -15 5 -3 9 1 9 9 0 17 -3 19 -12 6z"/>
<path d="M913 205 c0 -8 4 -12 9 -9 5 3 6 10 3 15 -9 13 -12 11 -12 -6z"/>
<path d="M1813 205 c0 -8 4 -12 9 -9 5 3 6 10 3 15 -9 13 -12 11 -12 -6z"/>
<path d="M1026 198 c3 -5 10 -6 15 -3 13 9 11 12 -6 12 -8 0 -12 -4 -9 -9z"/>
<path d="M1267 199 c7 -7 15 -10 18 -7 3 3 -2 9 -12 12 -14 6 -15 5 -6 -5z"/>
<path d="M1440 200 c-9 -6 -10 -10 -3 -10 6 0 15 5 18 10 8 12 4 12 -15 0z"/>
<path d="M1186 178 c3 -5 10 -6 15 -3 13 9 11 12 -6 12 -8 0 -12 -4 -9 -9z"/>
<path d="M1755 180 c-3 -5 -1 -10 4 -10 6 0 11 5 11 10 0 6 -2 10 -4 10 -3 0
-8 -4 -11 -10z"/>
</g>
</svg>
